<svg width="900" height="540" viewBox="0 0 900 540" xmlns="http://www.w3.org/2000/svg">
  <defs>
    <linearGradient id="g1" x1="0" x2="1" y1="0" y2="1">
      <stop offset="0%" stop-color="#b42318" stop-opacity="0.22"/>
      <stop offset="100%" stop-color="#b42318" stop-opacity="0"/>
    </linearGradient>
  </defs>
  <rect width="900" height="540" fill="none"/>
  <circle cx="180" cy="120" r="80" fill="#b42318" fill-opacity="0.08"/>
  <circle cx="280" cy="90" r="40" fill="#b42318" fill-opacity="0.05"/>
  <path d="M120 200h420a40 40 0 0 1 40 40v120a40 40 0 0 1-40 40H300l-120 90v-90H120a40 40 0 0 1-40-40V240a40 40 0 0 1 40-40z" fill="url(#g1)"/>
  <path d="M210 260h270" stroke="#b42318" stroke-opacity="0.18" stroke-width="10" stroke-linecap="round"/>
  <path d="M210 305h210" stroke="#b42318" stroke-opacity="0.12" stroke-width="10" stroke-linecap="round"/>
  <path d="M210 350h160" stroke="#b42318" stroke-opacity="0.1" stroke-width="10" stroke-linecap="round"/>
</svg>
